<?xml version="1.0" standalone="no"?>
<svg xmlns:xlink="http://www.w3.org/1999/xlink" id="wave" style="transform:rotate(0deg); transition: 0.3s" viewBox="0 0 1440 210" version="1.1" xmlns="http://www.w3.org/2000/svg"><defs><linearGradient id="sw-gradient-0" x1="0" x2="0" y1="1" y2="0"><stop stop-color="rgba(255, 201.752, 11.607, 1)" offset="0%"/><stop stop-color="rgba(251, 191, 36, 1)" offset="100%"/></linearGradient></defs><path style="transform:translate(0, 0px); opacity:1" fill="url(#sw-gradient-0)" d="M0,84L26.7,80.5C53.3,77,107,70,160,73.5C213.3,77,267,91,320,108.5C373.3,126,427,147,480,147C533.3,147,587,126,640,101.5C693.3,77,747,49,800,42C853.3,35,907,49,960,63C1013.3,77,1067,91,1120,105C1173.3,119,1227,133,1280,115.5C1333.3,98,1387,49,1440,35C1493.3,21,1547,42,1600,63C1653.3,84,1707,105,1760,105C1813.3,105,1867,84,1920,63C1973.3,42,2027,21,2080,42C2133.3,63,2187,126,2240,136.5C2293.3,147,2347,105,2400,73.5C2453.3,42,2507,21,2560,42C2613.3,63,2667,126,2720,147C2773.3,168,2827,147,2880,140C2933.3,133,2987,140,3040,150.5C3093.3,161,3147,175,3200,161C3253.3,147,3307,105,3360,91C3413.3,77,3467,91,3520,108.5C3573.3,126,3627,147,3680,157.5C3733.3,168,3787,168,3813,168L3840,168L3840,210L3813.3,210C3786.7,210,3733,210,3680,210C3626.7,210,3573,210,3520,210C3466.7,210,3413,210,3360,210C3306.7,210,3253,210,3200,210C3146.7,210,3093,210,3040,210C2986.7,210,2933,210,2880,210C2826.7,210,2773,210,2720,210C2666.7,210,2613,210,2560,210C2506.7,210,2453,210,2400,210C2346.7,210,2293,210,2240,210C2186.7,210,2133,210,2080,210C2026.7,210,1973,210,1920,210C1866.7,210,1813,210,1760,210C1706.7,210,1653,210,1600,210C1546.7,210,1493,210,1440,210C1386.7,210,1333,210,1280,210C1226.7,210,1173,210,1120,210C1066.7,210,1013,210,960,210C906.7,210,853,210,800,210C746.7,210,693,210,640,210C586.7,210,533,210,480,210C426.7,210,373,210,320,210C266.7,210,213,210,160,210C106.7,210,53,210,27,210L0,210Z"/></svg>