<?xml version="1.0" standalone="no"?>
<svg xmlns:xlink="http://www.w3.org/1999/xlink" id="wave" style="transform:rotate(0deg); transition: 0.3s" viewBox="0 0 1440 170" version="1.1" xmlns="http://www.w3.org/2000/svg"><defs><linearGradient id="sw-gradient-0" x1="0" x2="0" y1="1" y2="0"><stop stop-color="rgba(221.168, 191.833, 26.924, 1)" offset="0%"/><stop stop-color="rgba(255, 194, 68, 1)" offset="100%"/></linearGradient></defs><path style="transform:translate(0, 0px); opacity:1" fill="url(#sw-gradient-0)" d="M0,34L40,28.3C80,23,160,11,240,8.5C320,6,400,11,480,34C560,57,640,96,720,99.2C800,102,880,68,960,56.7C1040,45,1120,57,1200,59.5C1280,62,1360,57,1440,53.8C1520,51,1600,51,1680,45.3C1760,40,1840,28,1920,34C2000,40,2080,62,2160,68C2240,74,2320,62,2400,68C2480,74,2560,96,2640,102C2720,108,2800,96,2880,79.3C2960,62,3040,40,3120,48.2C3200,57,3280,96,3360,113.3C3440,130,3520,125,3600,102C3680,79,3760,40,3840,28.3C3920,17,4000,34,4080,39.7C4160,45,4240,40,4320,31.2C4400,23,4480,11,4560,31.2C4640,51,4720,102,4800,102C4880,102,4960,51,5040,39.7C5120,28,5200,57,5280,79.3C5360,102,5440,119,5520,113.3C5600,108,5680,79,5720,65.2L5760,51L5760,170L5720,170C5680,170,5600,170,5520,170C5440,170,5360,170,5280,170C5200,170,5120,170,5040,170C4960,170,4880,170,4800,170C4720,170,4640,170,4560,170C4480,170,4400,170,4320,170C4240,170,4160,170,4080,170C4000,170,3920,170,3840,170C3760,170,3680,170,3600,170C3520,170,3440,170,3360,170C3280,170,3200,170,3120,170C3040,170,2960,170,2880,170C2800,170,2720,170,2640,170C2560,170,2480,170,2400,170C2320,170,2240,170,2160,170C2080,170,2000,170,1920,170C1840,170,1760,170,1680,170C1600,170,1520,170,1440,170C1360,170,1280,170,1200,170C1120,170,1040,170,960,170C880,170,800,170,720,170C640,170,560,170,480,170C400,170,320,170,240,170C160,170,80,170,40,170L0,170Z"/></svg>